<svg width="84" height="33" viewBox="0 0 84 33" fill="none" xmlns="http://www.w3.org/2000/svg">
<path fill-rule="evenodd" clip-rule="evenodd" d="M82.458 13.0851C82.0914 11.9164 81.5812 10.8589 80.8639 9.93664C80.1465 9.01436 79.2698 8.34649 78.2336 7.84559C77.9387 7.68658 77.58 7.52756 77.2771 7.44806C77.2771 7.44806 77.1655 7.38445 77.0619 7.38445C77.0141 7.38445 76.9583 7.38445 76.9025 7.32879C76.8627 7.32879 76.8069 7.32879 76.8069 7.27314L76.0497 7.11412C75.4917 7.01871 74.7744 6.97101 73.9454 7.01871C72.718 7.07437 71.634 7.33675 70.6775 7.78199C69.6413 8.29084 68.7646 9.0064 68.0472 9.86509C67.3299 10.7874 66.8197 11.7971 66.4531 13.0215C66.1024 14.1823 65.943 15.5022 65.943 16.822C65.943 18.1975 66.1024 19.4696 66.4611 20.6384C66.8277 21.8071 67.3936 22.8646 68.0552 23.7392C68.5733 24.3514 69.1312 24.8523 69.8087 25.3134C70.1116 25.5201 70.3666 25.6712 70.6855 25.8223H70.7253C70.7253 25.8223 70.7731 25.8223 70.7731 25.87C70.8073 25.87 70.8232 25.8859 70.8379 25.9008C70.8506 25.9136 70.8625 25.9256 70.8847 25.9256C71.4028 26.18 71.9687 26.3232 72.5825 26.4345C74.3758 26.7843 75.9142 26.5378 75.9142 26.5378C76.7351 26.4345 77.5083 26.18 78.2256 25.87C79.3017 25.3611 80.1704 24.6535 80.8958 23.7869C81.6131 22.9282 82.1232 21.8548 82.4899 20.6861C82.8406 19.5173 83 18.2452 83 16.8697C83 15.5022 82.7928 14.2301 82.4819 13.0533L82.458 13.0851ZM70.4464 14.1983C70.6536 13.4032 70.9086 12.632 71.2673 12.0197C71.626 11.4155 72.0883 10.9066 72.5984 10.5568C73.1165 10.199 73.7302 10.0002 74.3918 10.0002C75.0613 10.0002 75.6272 10.1434 76.1453 10.5011C76.6554 10.851 77.0619 11.2962 77.4206 11.8687C77.7793 12.4809 78.0423 13.1408 78.2416 13.9518C78.4568 14.7628 78.5604 15.5817 78.5604 16.496V16.7981C78.5604 17.7125 78.4568 18.6268 78.3053 19.4378C78.0981 20.2567 77.843 20.9643 77.4844 21.5845C77.1257 22.1888 76.6634 22.642 76.1453 22.9997C75.6352 23.3575 75.0294 23.5086 74.3519 23.5086C73.6824 23.5086 73.0766 23.3496 72.5586 22.9997C72.0405 22.642 71.5782 22.1888 71.2195 21.5686C70.8529 20.9643 70.5978 20.2567 70.3906 19.4378C70.1913 18.6268 70.1355 17.7125 70.1355 16.7981C70.1913 15.9236 70.2949 15.0172 70.4543 14.2062L70.4464 14.1983ZM59.1999 26.7127L57.2072 28.9946L57 29.2013L57.2072 32H60.2839L63.5199 28.3904V16.9095L63.4243 16.0349L59.1999 18.2134V26.7127Z" fill="white"/>
<path d="M80.8639 9.93664L81.2586 9.62967L81.2586 9.62967L80.8639 9.93664ZM82.458 13.0851L81.9809 13.2348L82.2724 14.164L82.8577 13.3856L82.458 13.0851ZM78.2336 7.84559L77.9963 8.28569L78.006 8.29094L78.016 8.29575L78.2336 7.84559ZM77.2771 7.44806L77.0295 7.88244L77.0866 7.91499L77.1502 7.93167L77.2771 7.44806ZM76.9025 7.32879L77.2556 6.9748L77.1093 6.82879H76.9025V7.32879ZM76.8069 7.27314H77.3069V6.86723L76.9096 6.78381L76.8069 7.27314ZM76.0497 7.11412L76.1524 6.6248L76.1432 6.62286L76.1339 6.62128L76.0497 7.11412ZM73.9454 7.01871L73.9681 7.51824L73.9742 7.51789L73.9454 7.01871ZM70.6775 7.78199L70.4664 7.3286L70.4571 7.33318L70.6775 7.78199ZM68.0472 9.86509L67.6635 9.54452L67.6579 9.55122L67.6525 9.55811L68.0472 9.86509ZM66.4531 13.0215L66.9317 13.1661L66.9321 13.165L66.4531 13.0215ZM66.4611 20.6384L65.9831 20.7851L65.984 20.788L66.4611 20.6384ZM68.0552 23.7392L67.6564 24.0408L67.6647 24.0517L67.6735 24.0622L68.0552 23.7392ZM69.8087 25.3134L70.0906 24.9004L70.09 24.9001L69.8087 25.3134ZM70.6855 25.8223L70.4714 26.2741L70.573 26.3223H70.6855V25.8223ZM70.7731 25.87H70.2731V26.37H70.7731V25.87ZM70.8379 25.9008L71.1928 25.5486L71.1928 25.5486L70.8379 25.9008ZM70.8847 25.9256L71.1051 25.4768L71.0009 25.4256H70.8847V25.9256ZM72.5825 26.4345L72.6782 25.9437L72.6717 25.9425L72.5825 26.4345ZM75.9142 26.5378L75.8517 26.0417L75.8434 26.0428L75.8351 26.0441L75.9142 26.5378ZM78.2256 25.87L78.424 26.3289L78.4318 26.3256L78.4394 26.322L78.2256 25.87ZM80.8958 23.7869L81.2792 24.1078L81.2795 24.1074L80.8958 23.7869ZM82.4899 20.6861L82.967 20.8357L82.9688 20.8298L82.4899 20.6861ZM82.4819 13.0533L82.9653 12.9256L82.702 11.9286L82.0823 12.7529L82.4819 13.0533ZM71.2673 12.0197L70.8374 11.7645L70.8359 11.767L71.2673 12.0197ZM70.4464 14.1983L69.9625 14.0721L69.8902 14.3497L70.0932 14.5522L70.4464 14.1983ZM72.5984 10.5568L72.8812 10.9692L72.8825 10.9682L72.5984 10.5568ZM76.1453 10.5011L75.8612 10.9126L75.8625 10.9135L76.1453 10.5011ZM77.4206 11.8687L77.852 11.6159L77.8483 11.6095L77.8443 11.6032L77.4206 11.8687ZM78.2416 13.9518L77.7559 14.0711L77.7583 14.08L78.2416 13.9518ZM78.3053 19.4378L78.7901 19.5605L78.7939 19.5451L78.7968 19.5296L78.3053 19.4378ZM77.4844 21.5845L77.9144 21.8397L77.9172 21.8348L77.4844 21.5845ZM76.1453 22.9997L75.8612 22.5883L75.8582 22.5904L76.1453 22.9997ZM72.5586 22.9997L72.2744 23.4112L72.2787 23.4141L72.5586 22.9997ZM71.2195 21.5686L71.6524 21.3182L71.647 21.3092L71.2195 21.5686ZM70.3906 19.4378L69.905 19.5571L69.9058 19.5605L70.3906 19.4378ZM70.1355 16.7981L69.6365 16.7663L69.6355 16.7822V16.7981H70.1355ZM70.4543 14.2062L70.9449 14.3026L70.9964 14.0407L70.8074 13.8522L70.4543 14.2062ZM57.2072 28.9946L57.5603 29.3486L57.5725 29.3365L57.5838 29.3235L57.2072 28.9946ZM59.1999 26.7127L59.5765 27.0416L59.6999 26.9003V26.7127H59.1999ZM57 29.2013L56.6469 28.8473L56.4844 29.0094L56.5014 29.2383L57 29.2013ZM57.2072 32L56.7086 32.0369L56.7429 32.5H57.2072V32ZM60.2839 32V32.5H60.5071L60.6562 32.3338L60.2839 32ZM63.5199 28.3904L63.8922 28.7241L64.0199 28.5817V28.3904H63.5199ZM63.5199 16.9095H64.0199V16.8822L64.017 16.8551L63.5199 16.9095ZM63.4243 16.0349L63.9213 15.9805L63.8422 15.2568L63.1951 15.5905L63.4243 16.0349ZM59.1999 18.2134L58.9707 17.769L58.6999 17.9087V18.2134H59.1999ZM80.4692 10.2436C81.1426 11.1094 81.6282 12.1103 81.9809 13.2348L82.9351 12.9355C82.5545 11.7225 82.0199 10.6085 81.2586 9.62967L80.4692 10.2436ZM78.016 8.29575C78.9914 8.7673 79.8046 9.3891 80.4692 10.2436L81.2586 9.62967C80.4885 8.63961 79.5481 7.92568 78.4512 7.39543L78.016 8.29575ZM77.1502 7.93167C77.4003 7.99733 77.7202 8.13682 77.9963 8.28569L78.4709 7.40549C78.1572 7.23634 77.7597 7.0578 77.4041 6.96444L77.1502 7.93167ZM77.0619 7.88445C77.0232 7.88445 77.0096 7.87541 77.027 7.88219C77.0312 7.88383 77.0349 7.88555 77.0368 7.88647C77.0375 7.88685 77.0375 7.88684 77.0364 7.88628C77.0359 7.88599 77.0351 7.88554 77.0339 7.88491C77.0334 7.8846 77.0327 7.88424 77.032 7.88383C77.0316 7.88362 77.0312 7.88341 77.0308 7.88317C77.0306 7.88306 77.0304 7.88294 77.0302 7.88282C77.0301 7.88276 77.03 7.8827 77.0299 7.88263C77.0298 7.8826 77.0297 7.88255 77.0297 7.88254C77.0296 7.88249 77.0295 7.88244 77.2771 7.44806C77.5247 7.01367 77.5246 7.01362 77.5246 7.01357C77.5245 7.01355 77.5244 7.01351 77.5244 7.01347C77.5243 7.01341 77.5242 7.01334 77.524 7.01327C77.5238 7.01313 77.5235 7.01299 77.5233 7.01284C77.5228 7.01255 77.5222 7.01224 77.5216 7.01192C77.5205 7.01127 77.5192 7.01055 77.5178 7.00977C77.515 7.00821 77.5116 7.0064 77.5078 7.00437C77.5003 7.00032 77.4907 6.99535 77.4794 6.98976C77.4571 6.97876 77.4264 6.96457 77.3898 6.95031C77.3255 6.92529 77.2043 6.88445 77.0619 6.88445V7.88445ZM76.5494 7.68279C76.7578 7.89065 76.9985 7.88445 77.0619 7.88445V6.88445C77.0316 6.88445 77.067 6.88219 77.1104 6.89342C77.1355 6.89992 77.1631 6.91031 77.1906 6.92586C77.2179 6.94135 77.2395 6.95876 77.2556 6.9748L76.5494 7.68279ZM76.3069 7.27314C76.3069 7.374 76.3338 7.49507 76.4158 7.60477C76.4952 7.7109 76.5949 7.76457 76.6673 7.79115C76.7366 7.81662 76.7975 7.82366 76.8308 7.82632C76.8648 7.82905 76.8956 7.82879 76.9025 7.82879V6.82879C76.8895 6.82879 76.8984 6.82854 76.9108 6.82953C76.9223 6.83045 76.9618 6.83401 77.0122 6.85253C77.0656 6.87215 77.1489 6.91538 77.2166 7.00586C77.287 7.09991 77.3069 7.2001 77.3069 7.27314H76.3069ZM75.9469 7.60345L76.7041 7.76247L76.9096 6.78381L76.1524 6.6248L75.9469 7.60345ZM73.9742 7.51789C74.7689 7.47215 75.4482 7.51852 75.9654 7.60697L76.1339 6.62128C75.5353 6.51891 74.7798 6.46987 73.9167 6.51954L73.9742 7.51789ZM70.8885 8.23528C71.7804 7.82012 72.7995 7.57119 73.9681 7.5182L73.9228 6.51923C72.6364 6.57755 71.4876 6.85337 70.4665 7.32869L70.8885 8.23528ZM68.4309 10.1856C69.1069 9.37648 69.9293 8.70647 70.8979 8.23079L70.4571 7.33318C69.3534 7.8752 68.4222 8.63633 67.6635 9.54452L68.4309 10.1856ZM66.9321 13.165C67.2826 11.9943 67.7659 11.0412 68.4419 10.1721L67.6525 9.55811C66.8938 10.5336 66.3569 11.5999 65.9741 12.8781L66.9321 13.165ZM66.443 16.822C66.443 15.5393 66.5983 14.2699 66.9317 13.1661L65.9745 12.8769C65.6065 14.0948 65.443 15.4651 65.443 16.822H66.443ZM66.9391 20.4917C66.5981 19.3805 66.443 18.1595 66.443 16.822H65.443C65.443 18.2355 65.6067 19.5587 65.9831 20.7851L66.9391 20.4917ZM68.4539 23.4375C67.8257 22.6069 67.2869 21.6006 66.9381 20.4887L65.984 20.788C66.3685 22.0137 66.9616 23.1222 67.6564 24.0408L68.4539 23.4375ZM70.09 24.9001C69.4491 24.4638 68.9251 23.9931 68.4369 23.4162L67.6735 24.0622C68.2214 24.7096 68.8133 25.2407 69.5274 25.7267L70.09 24.9001ZM70.8996 25.3704C70.6084 25.2325 70.3761 25.0953 70.0906 24.9004L69.5268 25.7264C69.8471 25.945 70.1248 26.1099 70.4714 26.2741L70.8996 25.3704ZM70.7253 25.3223H70.6855V26.3223H70.7253V25.3223ZM71.2731 25.87C71.2731 25.7703 71.2467 25.6623 71.1814 25.5646C71.1182 25.47 71.0376 25.4133 70.9724 25.3808C70.9091 25.3492 70.8519 25.336 70.8148 25.3298C70.795 25.3265 70.7775 25.3247 70.7629 25.3236C70.7555 25.3231 70.7487 25.3228 70.7425 25.3225C70.7394 25.3224 70.7364 25.3224 70.7335 25.3223C70.7321 25.3223 70.7307 25.3223 70.7293 25.3223C70.7286 25.3223 70.728 25.3223 70.7273 25.3223C70.727 25.3223 70.7266 25.3223 70.7263 25.3223C70.7261 25.3223 70.7259 25.3223 70.7258 25.3223C70.7256 25.3223 70.7253 25.3223 70.7253 25.8223C70.7253 26.3223 70.7251 26.3223 70.7248 26.3223C70.7248 26.3223 70.7245 26.3223 70.7243 26.3223C70.724 26.3223 70.7237 26.3223 70.7234 26.3223C70.7227 26.3223 70.7221 26.3222 70.7214 26.3222C70.7201 26.3222 70.7188 26.3222 70.7174 26.3222C70.7147 26.3222 70.712 26.3221 70.7092 26.322C70.7037 26.3218 70.6979 26.3215 70.6918 26.3211C70.6799 26.3202 70.6661 26.3188 70.6508 26.3162C70.6226 26.3116 70.5774 26.3012 70.5261 26.2757C70.4728 26.2491 70.4042 26.2014 70.35 26.1202C70.2936 26.0359 70.2731 25.9458 70.2731 25.87H71.2731ZM71.1928 25.5486C71.1907 25.5464 71.1395 25.4913 71.0639 25.4474C70.9753 25.396 70.8758 25.37 70.7731 25.37V26.37C70.7046 26.37 70.6301 26.3519 70.5618 26.3122C70.5063 26.28 70.4704 26.2403 70.483 26.253L71.1928 25.5486ZM70.8847 25.4256C70.9745 25.4256 71.0572 25.4529 71.1234 25.4944C71.1732 25.5256 71.2068 25.5627 71.1928 25.5486L70.483 26.253C70.4892 26.2592 70.634 26.4256 70.8847 26.4256V25.4256ZM72.6717 25.9425C72.0753 25.8343 71.5621 25.7012 71.1051 25.4768L70.6643 26.3744C71.2436 26.6589 71.8622 26.812 72.4932 26.9264L72.6717 25.9425ZM75.9142 26.5378C75.8351 26.0441 75.8352 26.0441 75.8352 26.0441C75.8353 26.0441 75.8353 26.0441 75.8354 26.0441C75.8355 26.0441 75.8355 26.0441 75.8356 26.044C75.8356 26.044 75.8356 26.044 75.8355 26.0441C75.8353 26.0441 75.8347 26.0442 75.8338 26.0443C75.8319 26.0446 75.8285 26.0451 75.8238 26.0458C75.8143 26.0472 75.7991 26.0494 75.7787 26.0521C75.7378 26.0575 75.6757 26.0652 75.5948 26.0735C75.4331 26.09 75.1969 26.109 74.9061 26.1176C74.323 26.1347 73.5288 26.1096 72.6782 25.9437L72.4867 26.9252C73.4295 27.1091 74.3012 27.1358 74.9355 27.1171C75.2535 27.1078 75.514 27.087 75.6967 27.0683C75.7881 27.0589 75.8602 27.0501 75.9104 27.0434C75.9356 27.04 75.9552 27.0372 75.9691 27.0352C75.9761 27.0342 75.9816 27.0333 75.9856 27.0327C75.9877 27.0324 75.9893 27.0322 75.9906 27.032C75.9912 27.0319 75.9918 27.0318 75.9922 27.0317C75.9924 27.0317 75.9926 27.0316 75.9928 27.0316C75.9929 27.0316 75.993 27.0316 75.9931 27.0316C75.9932 27.0315 75.9933 27.0315 75.9142 26.5378ZM78.0272 25.411C77.3372 25.7093 76.6112 25.9461 75.8517 26.0417L75.9766 27.0339C76.8591 26.9228 77.6794 26.6508 78.424 26.3289L78.0272 25.411ZM80.5123 23.466C79.829 24.2824 79.0166 24.9428 78.0119 25.418L78.4394 26.322C79.5868 25.7794 80.5119 25.0246 81.2792 24.1078L80.5123 23.466ZM82.0128 20.5364C81.6585 21.6658 81.1742 22.6737 80.5121 23.4663L81.2795 24.1074C82.0521 23.1827 82.588 22.0438 82.967 20.8357L82.0128 20.5364ZM82.5 16.8697C82.5 18.2071 82.3449 19.4294 82.011 20.5424L82.9688 20.8298C83.3362 19.6052 83.5 18.2833 83.5 16.8697H82.5ZM81.9985 13.181C82.3006 14.3246 82.5 15.5532 82.5 16.8697H83.5C83.5 15.4511 83.2849 14.1355 82.9653 12.9256L81.9985 13.181ZM82.8577 13.3856L82.8816 13.3538L82.0823 12.7529L82.0584 12.7847L82.8577 13.3856ZM70.8359 11.767C70.4418 12.4398 70.173 13.2647 69.9625 14.0721L70.9302 14.3244C71.1342 13.5416 71.3755 12.8241 71.6987 12.2725L70.8359 11.767ZM72.3156 10.1445C71.7377 10.5408 71.2278 11.1067 70.8374 11.7645L71.6973 12.275C72.0242 11.7243 72.4389 11.2725 72.8812 10.9692L72.3156 10.1445ZM74.3918 9.50025C73.6274 9.50025 72.9148 9.73065 72.3143 10.1454L72.8825 10.9682C73.3182 10.6674 73.833 10.5002 74.3918 10.5002V9.50025ZM76.4294 10.0897C75.8107 9.66244 75.1398 9.50025 74.3918 9.50025V10.5002C74.9828 10.5002 75.4437 10.6243 75.8612 10.9126L76.4294 10.0897ZM77.8443 11.6032C77.4555 10.9827 77.0038 10.4836 76.4281 10.0888L75.8625 10.9135C76.3071 11.2184 76.6683 11.6097 76.9969 12.1342L77.8443 11.6032ZM78.7271 13.8325C78.5179 12.9808 78.2381 12.2749 77.852 11.6159L76.9892 12.1214C77.3205 12.6869 77.5668 13.3008 77.756 14.0711L78.7271 13.8325ZM79.0604 16.496C79.0604 15.5416 78.952 14.6794 78.7248 13.8235L77.7583 14.08C77.9616 14.8461 78.0604 15.6217 78.0604 16.496H79.0604ZM79.0604 16.7981V16.496H78.0604V16.7981H79.0604ZM78.7968 19.5296C78.9529 18.694 79.0604 17.7486 79.0604 16.7981H78.0604C78.0604 17.6764 77.9607 18.5596 77.8138 19.346L78.7968 19.5296ZM77.9172 21.8348C78.3068 21.1612 78.5761 20.4059 78.7901 19.5605L77.8206 19.3151C77.6201 20.1076 77.3793 20.7675 77.0515 21.3342L77.9172 21.8348ZM76.4294 23.4112C76.9975 23.0189 77.5135 22.515 77.9143 21.8397L77.0544 21.3293C76.7379 21.8625 76.3293 22.265 75.8612 22.5883L76.4294 23.4112ZM74.3519 24.0086C75.1045 24.0086 75.8181 23.84 76.4324 23.4091L75.8582 22.5904C75.4523 22.8751 74.9544 23.0086 74.3519 23.0086V24.0086ZM72.2787 23.4141C72.8936 23.8293 73.6012 24.0086 74.3519 24.0086V23.0086C73.7636 23.0086 73.2597 22.8699 72.8384 22.5854L72.2787 23.4141ZM70.7867 21.8189C71.1881 22.5131 71.7057 23.0184 72.2744 23.4112L72.8427 22.5883C72.3752 22.2655 71.9682 21.8644 71.6523 21.3183L70.7867 21.8189ZM69.9058 19.5605C70.1194 20.4046 70.3897 21.1649 70.792 21.828L71.647 21.3092C71.316 20.7638 71.0761 20.1089 70.8753 19.3151L69.9058 19.5605ZM69.6355 16.7981C69.6355 17.7273 69.6916 18.6884 69.905 19.5571L70.8761 19.3185C70.691 18.5653 70.6355 17.6977 70.6355 16.7981H69.6355ZM69.9637 14.1098C69.7991 14.9474 69.6933 15.8762 69.6365 16.7663L70.6345 16.83C70.6893 15.9709 70.7908 15.0869 70.9449 14.3026L69.9637 14.1098ZM70.0932 14.5522L70.1012 14.5602L70.8074 13.8522L70.7995 13.8443L70.0932 14.5522ZM57.5838 29.3235L59.5765 27.0416L58.8233 26.3839L56.8306 28.6657L57.5838 29.3235ZM57.3531 29.5553L57.5603 29.3486L56.8541 28.6406L56.6469 28.8473L57.3531 29.5553ZM57.7059 31.9631L57.4986 29.1644L56.5014 29.2383L56.7086 32.0369L57.7059 31.9631ZM60.2839 31.5H57.2072V32.5H60.2839V31.5ZM63.1476 28.0566L59.9116 31.6662L60.6562 32.3338L63.8922 28.7241L63.1476 28.0566ZM63.0199 16.9095V28.3904H64.0199V16.9095H63.0199ZM62.9272 16.0892L63.0229 16.9638L64.017 16.8551L63.9213 15.9805L62.9272 16.0892ZM59.429 18.6578L63.6534 16.4793L63.1951 15.5905L58.9707 17.769L59.429 18.6578ZM59.6999 26.7127V18.2134H58.6999V26.7127H59.6999Z" fill="black"/>
<path fill-rule="evenodd" clip-rule="evenodd" d="M33.2789 6.22177L31.2657 4.00409L31 3.81535L31.2094 1L34.3097 1.04718L37.6435 4.61749V16.2328L37.5469 16.8776L33.2789 14.6757V6.22177ZM61.8499 9.34382C62.5747 10.2561 63.09 11.302 63.4605 12.458L63.4766 12.4265C63.8389 13.5904 64 14.8487 64 16.2013C64 17.5618 63.8389 18.8201 63.4846 19.9761C63.1142 21.1321 62.5988 22.1938 61.8741 23.0431C61.1493 23.9003 60.2635 24.6002 59.1764 25.1035C58.4517 25.4102 57.6706 25.6618 56.8411 25.7641C56.8411 25.7641 55.287 26.0079 53.4751 25.6618C52.8551 25.5517 52.2833 25.4102 51.7679 25.1585C51.7387 25.1585 51.7246 25.1437 51.7111 25.1294C51.6985 25.1162 51.6865 25.1035 51.6632 25.1035C51.6632 25.0563 51.6069 25.0563 51.6069 25.0563H51.5666C51.2445 24.9069 50.9868 24.7575 50.6808 24.553C50.0044 24.0969 49.4326 23.6014 48.9092 22.9959C48.2408 22.1309 47.6691 21.0849 47.2987 19.9289C46.9444 18.7729 46.7833 17.5146 46.7833 16.1541C46.7833 14.8487 46.9363 13.5433 47.2906 12.3951C47.6611 11.184 48.1764 10.1853 48.9012 9.27304C49.6259 8.42372 50.5117 7.71595 51.5586 7.21265C52.5249 6.77226 53.6201 6.51274 54.8602 6.45769C55.6977 6.41051 56.4224 6.45769 56.9861 6.55206L57.7511 6.70934C57.7511 6.76439 57.8075 6.76439 57.8477 6.76439C57.9122 6.81944 57.9605 6.81944 58.0088 6.81944C58.1135 6.81944 58.2262 6.88235 58.2262 6.88235C58.5322 6.96099 58.8946 7.11828 59.1925 7.27556C60.2394 7.771 61.1252 8.43158 61.8499 9.34382ZM52.2028 11.4042C51.8404 12.0098 51.5827 12.7726 51.3814 13.559L51.3895 13.5668C51.1828 14.3588 51.1252 15.2427 51.0695 16.0975V16.0975L51.0674 16.1305C51.0674 17.0349 51.1157 17.9393 51.325 18.7414C51.5344 19.5514 51.7921 20.2513 52.1545 20.849C52.5168 21.4624 52.9839 21.9107 53.4993 22.2645C54.0227 22.6106 54.6428 22.7679 55.3272 22.7679C55.9956 22.7679 56.6237 22.6184 57.1391 22.2645C57.6545 21.9107 58.1215 21.4624 58.4758 20.8647C58.8382 20.2513 59.104 19.5514 59.3053 18.7414C59.4663 17.9393 59.5791 17.0349 59.5791 16.1305V15.8317C59.5791 14.9273 59.4663 14.1173 59.257 13.3152C59.0476 12.5131 58.7899 11.8603 58.4275 11.2548C58.0652 10.6886 57.6464 10.2482 57.1391 9.90217C56.6157 9.54829 56.0439 9.40673 55.3675 9.40673C54.683 9.40673 54.071 9.60333 53.5556 9.95722C53.0322 10.3032 52.5652 10.8065 52.2028 11.4042ZM39.9627 6.53633H44.3111V26H39.9627V6.53633Z" fill="white"/>
<path d="M31.2657 4.00409L31.6359 3.66802L31.5995 3.62785L31.5553 3.59644L31.2657 4.00409ZM33.2789 6.22177H33.7789V6.02867L33.6491 5.8857L33.2789 6.22177ZM31 3.81535L30.5014 3.77827L30.4805 4.05963L30.7105 4.223L31 3.81535ZM31.2094 1L31.217 0.500058L30.7457 0.492885L30.7107 0.962919L31.2094 1ZM34.3097 1.04718L34.6751 0.705941L34.5299 0.550479L34.3173 0.547243L34.3097 1.04718ZM37.6435 4.61749H38.1435V4.42034L38.0089 4.27625L37.6435 4.61749ZM37.6435 16.2328L38.138 16.3069L38.1435 16.27V16.2328H37.6435ZM37.5469 16.8776L37.3176 17.322L37.9379 17.642L38.0413 16.9517L37.5469 16.8776ZM33.2789 14.6757H32.7789V14.9803L33.0497 15.12L33.2789 14.6757ZM63.4605 12.458L62.9843 12.6106L63.3538 13.7635L63.9055 12.6859L63.4605 12.458ZM61.8499 9.34382L61.4584 9.65484L61.4584 9.65484L61.8499 9.34382ZM63.4766 12.4265L63.954 12.2779L63.5898 11.1083L63.0315 12.1987L63.4766 12.4265ZM63.4846 19.9761L63.9608 20.1287L63.9627 20.1226L63.4846 19.9761ZM61.8741 23.0431L61.4937 22.7185L61.4923 22.7203L61.8741 23.0431ZM59.1764 25.1035L59.3713 25.564L59.3789 25.5607L59.3865 25.5572L59.1764 25.1035ZM56.8411 25.7641L56.78 25.2678L56.7718 25.2688L56.7637 25.2701L56.8411 25.7641ZM53.4751 25.6618L53.5689 25.1707L53.5625 25.1695L53.4751 25.6618ZM51.7679 25.1585L51.9873 24.7092L51.8835 24.6585H51.7679V25.1585ZM51.7111 25.1294L52.0739 24.7855L52.0739 24.7854L51.7111 25.1294ZM51.6632 25.1035H51.1632V25.6035H51.6632V25.1035ZM51.5666 25.0563L51.3562 25.5099L51.4563 25.5563H51.5666V25.0563ZM50.6808 24.553L50.4013 24.9676L50.403 24.9687L50.6808 24.553ZM48.9092 22.9959L48.5136 23.3016L48.522 23.3125L48.531 23.3229L48.9092 22.9959ZM47.2987 19.9289L46.8206 20.0754L46.8225 20.0815L47.2987 19.9289ZM47.2906 12.3951L47.7684 12.5425L47.7688 12.5413L47.2906 12.3951ZM48.9012 9.27304L48.5208 8.94848L48.5151 8.95515L48.5097 8.96202L48.9012 9.27304ZM51.5586 7.21265L51.3512 6.75757L51.3419 6.76202L51.5586 7.21265ZM54.8602 6.45769L54.8824 6.95723L54.8883 6.9569L54.8602 6.45769ZM56.9861 6.55206L57.0868 6.0623L57.0777 6.06045L57.0686 6.05892L56.9861 6.55206ZM57.7511 6.70934H58.2511V6.30168L57.8518 6.21959L57.7511 6.70934ZM57.8477 6.76439L58.1726 6.38427L58.0323 6.26439H57.8477V6.76439ZM58.2262 6.88235L57.9826 7.31897L58.0391 7.35051L58.1018 7.36662L58.2262 6.88235ZM59.1925 7.27556L58.9591 7.71773L58.9688 7.72283L58.9786 7.7275L59.1925 7.27556ZM51.3814 13.559L50.897 13.435L50.8254 13.7149L51.0321 13.9167L51.3814 13.559ZM52.2028 11.4042L51.7752 11.145L51.7737 11.1475L52.2028 11.4042ZM51.3895 13.5668L51.8733 13.6931L51.9466 13.4121L51.7388 13.2091L51.3895 13.5668ZM51.0695 16.0975L50.5706 16.065L50.5695 16.0812V16.0975H51.0695ZM51.0695 16.0975L51.5684 16.13L51.5695 16.1138V16.0975H51.0695ZM51.0674 16.1305L50.5684 16.098L50.5674 16.1143V16.1305H51.0674ZM51.325 18.7414L51.8091 18.6163L51.8088 18.6152L51.325 18.7414ZM52.1545 20.849L52.585 20.5947L52.582 20.5898L52.1545 20.849ZM53.4993 22.2645L53.2162 22.6768L53.2235 22.6816L53.4993 22.2645ZM57.1391 22.2645L57.4221 22.6767L57.4221 22.6767L57.1391 22.2645ZM58.4758 20.8647L58.9059 21.1197L58.9063 21.1191L58.4758 20.8647ZM59.3053 18.7414L59.7905 18.862L59.7933 18.851L59.7955 18.8399L59.3053 18.7414ZM59.257 13.3152L58.7732 13.4415L58.7732 13.4415L59.257 13.3152ZM58.4275 11.2548L58.8566 10.998L58.8527 10.9916L58.8487 10.9853L58.4275 11.2548ZM57.1391 9.90217L57.4208 9.4891L57.4191 9.48796L57.1391 9.90217ZM53.5556 9.95722L53.8314 10.3744L53.8387 10.3694L53.5556 9.95722ZM44.3111 6.53633H44.8111V6.03633H44.3111V6.53633ZM39.9627 6.53633V6.03633H39.4627V6.53633H39.9627ZM44.3111 26V26.5H44.8111V26H44.3111ZM39.9627 26H39.4627V26.5H39.9627V26ZM30.8955 4.34016L32.9087 6.55784L33.6491 5.8857L31.6359 3.66802L30.8955 4.34016ZM30.7105 4.223L30.9762 4.41173L31.5553 3.59644L31.2895 3.40771L30.7105 4.223ZM30.7107 0.962919L30.5014 3.77827L31.4986 3.85243L31.708 1.03708L30.7107 0.962919ZM34.3173 0.547243L31.217 0.500058L31.2018 1.49994L34.3021 1.54713L34.3173 0.547243ZM38.0089 4.27625L34.6751 0.705941L33.9442 1.38843L37.278 4.95873L38.0089 4.27625ZM38.1435 16.2328V4.61749H37.1435V16.2328H38.1435ZM38.0413 16.9517L38.138 16.3069L37.149 16.1587L37.0524 16.8035L38.0413 16.9517ZM33.0497 15.12L37.3176 17.322L37.7761 16.4333L33.5082 14.2313L33.0497 15.12ZM32.7789 6.22177V14.6757H33.7789V6.22177H32.7789ZM63.9366 12.3054C63.5517 11.1043 63.011 10.0015 62.2414 9.03279L61.4584 9.65484C62.1383 10.5106 62.6283 11.4997 62.9843 12.6106L63.9366 12.3054ZM63.0315 12.1987L63.0154 12.2301L63.9055 12.6859L63.9216 12.6544L63.0315 12.1987ZM64.5 16.2013C64.5 14.8095 64.3343 13.4995 63.954 12.2779L62.9992 12.5752C63.3436 13.6813 63.5 14.8879 63.5 16.2013H64.5ZM63.9627 20.1226C64.3344 18.9099 64.5 17.6008 64.5 16.2013H63.5C63.5 17.5228 63.3435 18.7303 63.0066 19.8296L63.9627 20.1226ZM62.2544 23.3677C63.0355 22.4524 63.5775 21.3249 63.9608 20.1287L63.0085 19.8235C62.6509 20.9394 62.1622 21.9352 61.4937 22.7185L62.2544 23.3677ZM59.3865 25.5572C60.5428 25.0219 61.4864 24.276 62.2559 23.3659L61.4923 22.7203C60.8123 23.5245 59.9842 24.1785 58.9664 24.6498L59.3865 25.5572ZM56.9023 26.2603C57.792 26.1507 58.6195 25.8821 59.3713 25.564L58.9816 24.643C58.2839 24.9383 57.5491 25.173 56.78 25.2678L56.9023 26.2603ZM53.3813 26.153C54.3324 26.3346 55.2119 26.3609 55.852 26.3425C56.1728 26.3333 56.4356 26.3127 56.6199 26.2943C56.7121 26.285 56.7847 26.2763 56.8353 26.2697C56.8606 26.2664 56.8805 26.2636 56.8944 26.2616C56.9014 26.2606 56.907 26.2598 56.911 26.2592C56.913 26.2589 56.9147 26.2586 56.916 26.2585C56.9166 26.2584 56.9171 26.2583 56.9176 26.2582C56.9178 26.2582 56.918 26.2581 56.9182 26.2581C56.9183 26.2581 56.9184 26.2581 56.9184 26.2581C56.9185 26.2581 56.9186 26.258 56.8411 25.7641C56.7637 25.2701 56.7637 25.2701 56.7638 25.2701C56.7639 25.2701 56.7639 25.2701 56.764 25.2701C56.764 25.2701 56.7641 25.27 56.7641 25.27C56.7642 25.27 56.7642 25.27 56.7641 25.2701C56.7638 25.2701 56.7632 25.2702 56.7622 25.2703C56.7603 25.2706 56.7569 25.2711 56.7521 25.2718C56.7424 25.2732 56.727 25.2754 56.7063 25.2781C56.6648 25.2835 56.6019 25.2911 56.5201 25.2993C56.3563 25.3157 56.1174 25.3345 55.8232 25.3429C55.2332 25.3599 54.4296 25.3351 53.5689 25.1707L53.3813 26.153ZM51.5485 25.6078C52.1261 25.8899 52.7515 26.0412 53.3877 26.1541L53.5625 25.1695C52.9586 25.0623 52.4405 24.9305 51.9873 24.7092L51.5485 25.6078ZM51.3482 25.4734C51.3694 25.4958 51.5126 25.6585 51.7679 25.6585V24.6585C51.8471 24.6585 51.9274 24.6812 51.997 24.7243C52.0516 24.7582 52.0869 24.7991 52.0739 24.7855L51.3482 25.4734ZM51.6632 25.6035C51.5725 25.6035 51.4879 25.5754 51.42 25.5316C51.3685 25.4984 51.3345 25.459 51.3482 25.4734L52.0739 24.7854C52.0663 24.7774 51.921 24.6035 51.6632 24.6035V25.6035ZM51.6069 25.0563C51.6069 25.5563 51.6067 25.5563 51.6065 25.5563C51.6064 25.5563 51.6062 25.5563 51.6061 25.5563C51.6058 25.5563 51.6055 25.5563 51.6052 25.5563C51.6047 25.5563 51.6042 25.5563 51.6036 25.5563C51.6025 25.5563 51.6014 25.5563 51.6003 25.5563C51.5981 25.5562 51.5958 25.5562 51.5936 25.5561C51.589 25.556 51.5843 25.5558 51.5795 25.5555C51.5699 25.5549 51.5588 25.554 51.5466 25.5522C51.5248 25.5492 51.4869 25.5422 51.442 25.5234C51.3976 25.5048 51.3256 25.4659 51.2633 25.3877C51.1949 25.3018 51.1632 25.1996 51.1632 25.1035H52.1632C52.1632 24.9838 52.1245 24.8639 52.0456 24.7647C51.9727 24.6733 51.8866 24.6255 51.8281 24.601C51.7692 24.5763 51.7172 24.5664 51.6848 24.5618C51.6673 24.5594 51.6518 24.558 51.6391 24.5573C51.6327 24.5569 51.6268 24.5567 51.6215 24.5565C51.6188 24.5564 51.6162 24.5564 51.6138 24.5564C51.6126 24.5563 51.6114 24.5563 51.6102 24.5563C51.6097 24.5563 51.6091 24.5563 51.6085 24.5563C51.6083 24.5563 51.608 24.5563 51.6077 24.5563C51.6076 24.5563 51.6074 24.5563 51.6073 24.5563C51.6071 24.5563 51.6069 24.5563 51.6069 25.0563ZM51.5666 25.5563H51.6069V24.5563H51.5666V25.5563ZM50.403 24.9687C50.7264 25.1848 51.0067 25.3477 51.3562 25.5099L51.777 24.6027C51.4824 24.466 51.2472 24.3301 50.9586 24.1373L50.403 24.9687ZM48.531 23.3229C49.086 23.965 49.6918 24.4892 50.4013 24.9676L50.9604 24.1384C50.317 23.7046 49.7793 23.2379 49.2875 22.6689L48.531 23.3229ZM46.8225 20.0815C47.2115 21.2953 47.8113 22.3927 48.5136 23.3016L49.3049 22.6902C48.6704 21.869 48.1267 20.8746 47.7748 19.7763L46.8225 20.0815ZM46.2833 16.1541C46.2833 17.5536 46.4489 18.8627 46.8206 20.0754L47.7767 19.7824C47.4398 18.6831 47.2833 17.4757 47.2833 16.1541H46.2833ZM46.8129 12.2477C46.4401 13.4556 46.2833 14.8131 46.2833 16.1541H47.2833C47.2833 14.8843 47.4325 13.6309 47.7684 12.5425L46.8129 12.2477ZM48.5097 8.96202C47.7428 9.92733 47.1996 10.9831 46.8125 12.2488L47.7688 12.5413C48.1225 11.385 48.6101 10.4432 49.2927 9.58407L48.5097 8.96202ZM51.3419 6.76202C50.2281 7.29751 49.2876 8.04986 48.5208 8.94848L49.2815 9.5976C49.9642 8.79758 50.7953 8.13439 51.7752 7.66327L51.3419 6.76202ZM54.838 5.95818C53.5403 6.01579 52.3814 6.28817 51.3512 6.75767L51.7659 7.66762C52.6684 7.25634 53.6998 7.00969 54.8823 6.9572L54.838 5.95818ZM57.0686 6.05892C56.4651 5.95787 55.703 5.90941 54.8321 5.95848L54.8883 6.9569C55.6923 6.9116 56.3797 6.95751 56.9035 7.0452L57.0686 6.05892ZM57.8518 6.21959L57.0868 6.0623L56.8854 7.04182L57.6504 7.1991L57.8518 6.21959ZM57.8477 6.26439C57.8347 6.26439 57.8431 6.26414 57.8548 6.26507C57.8657 6.26592 57.9042 6.26928 57.9536 6.28704C58.0055 6.30571 58.0891 6.34768 58.1579 6.43764C58.23 6.53201 58.2511 6.63382 58.2511 6.70934H57.2511C57.2511 6.81239 57.2793 6.93485 57.3632 7.0447C57.4438 7.15014 57.544 7.20243 57.615 7.22799C57.6835 7.25262 57.7437 7.25942 57.7765 7.26199C57.8101 7.26464 57.8406 7.26439 57.8477 7.26439V6.26439ZM58.0088 6.31944C57.9789 6.31944 58.0166 6.31719 58.0614 6.32899C58.1163 6.34343 58.1543 6.3687 58.1726 6.38427L57.5229 7.14451C57.6055 7.21513 57.6999 7.26793 57.8072 7.29612C57.9044 7.32169 57.9903 7.31944 58.0088 7.31944V6.31944ZM58.2262 6.88235C58.4699 6.44574 58.4698 6.44569 58.4697 6.44564C58.4697 6.44563 58.4696 6.44558 58.4695 6.44555C58.4694 6.44548 58.4693 6.44541 58.4692 6.44535C58.4689 6.44521 58.4687 6.44508 58.4684 6.44493C58.4679 6.44465 58.4674 6.44435 58.4668 6.44403C58.4656 6.44339 58.4643 6.44269 58.4629 6.44193C58.4601 6.44041 58.4568 6.43863 58.453 6.43665C58.4454 6.43268 58.4358 6.42781 58.4245 6.42233C58.4022 6.41154 58.3715 6.39764 58.3348 6.38368C58.2703 6.35909 58.1498 6.31944 58.0088 6.31944V7.31944C57.9725 7.31944 57.9607 7.31125 57.9787 7.31812C57.9833 7.31988 57.9873 7.32171 57.9894 7.32271C57.9903 7.32314 57.9903 7.32317 57.9893 7.32265C57.9888 7.32238 57.988 7.32196 57.9869 7.32136C57.9863 7.32106 57.9857 7.32071 57.985 7.32031C57.9846 7.32012 57.9842 7.31991 57.9838 7.31968C57.9836 7.31957 57.9834 7.31945 57.9832 7.31933C57.9831 7.31928 57.983 7.31922 57.9829 7.31915C57.9828 7.31912 57.9828 7.31908 57.9827 7.31906C57.9826 7.31902 57.9826 7.31897 58.2262 6.88235ZM59.4259 6.83339C59.1093 6.66621 58.7086 6.49008 58.3507 6.39809L58.1018 7.36662C58.3558 7.43191 58.6799 7.57034 58.9591 7.71773L59.4259 6.83339ZM62.2414 9.03279C61.4631 8.0531 60.5133 7.34745 59.4064 6.82362L58.9786 7.7275C59.9655 8.19455 60.7873 8.81006 61.4584 9.65484L62.2414 9.03279ZM51.8658 13.683C52.0629 12.913 52.3063 12.2049 52.6318 11.661L51.7737 11.1475C51.3745 11.8146 51.1025 12.6322 50.897 13.435L51.8658 13.683ZM51.7388 13.2091L51.7307 13.2013L51.0321 13.9167L51.0401 13.9246L51.7388 13.2091ZM51.5684 16.13C51.6248 15.2646 51.6808 14.4304 51.8733 13.6931L50.9057 13.4406C50.6847 14.2871 50.6255 15.2207 50.5706 16.065L51.5684 16.13ZM51.5695 16.0975V16.0975H50.5695V16.0975H51.5695ZM51.5663 16.163L51.5684 16.13L50.5706 16.065L50.5684 16.098L51.5663 16.163ZM51.8088 18.6152C51.616 17.8766 51.5674 17.0241 51.5674 16.1305H50.5674C50.5674 17.0457 50.6153 18.002 50.8412 18.8677L51.8088 18.6152ZM52.582 20.5898C52.2542 20.0491 52.0118 19.4003 51.8091 18.6163L50.8409 18.8666C51.057 19.7026 51.33 20.4535 51.7269 21.1082L52.582 20.5898ZM53.7823 21.8524C53.3153 21.5317 52.9037 21.1342 52.585 20.5947L51.724 21.1033C52.13 21.7907 52.6525 22.2896 53.2162 22.6767L53.7823 21.8524ZM55.3272 22.2679C54.72 22.2679 54.2009 22.129 53.775 21.8474L53.2235 22.6816C53.8445 23.0922 54.5655 23.2679 55.3272 23.2679V22.2679ZM56.8561 21.8524C56.4453 22.1345 55.9239 22.2679 55.3272 22.2679V23.2679C56.0674 23.2679 56.8022 23.1024 57.4221 22.6767L56.8561 21.8524ZM58.0457 20.6098C57.7355 21.1331 57.3241 21.531 56.8561 21.8524L57.4221 22.6767C57.9849 22.2903 58.5076 21.7917 58.9059 21.1197L58.0457 20.6098ZM58.82 18.6208C58.6272 19.3967 58.3771 20.0488 58.0454 20.6104L58.9063 21.1191C59.2993 20.4539 59.5807 19.7061 59.7905 18.862L58.82 18.6208ZM59.0791 16.1305C59.0791 16.9952 58.9711 17.866 58.8151 18.643L59.7955 18.8399C59.9616 18.0125 60.0791 17.0746 60.0791 16.1305H59.0791ZM59.0791 15.8317V16.1305H60.0791V15.8317H59.0791ZM58.7732 13.4415C58.9722 14.2039 59.0791 14.9715 59.0791 15.8317H60.0791C60.0791 14.8832 59.9605 14.0308 59.7407 13.1889L58.7732 13.4415ZM57.9985 11.5115C58.3312 12.0676 58.5729 12.6741 58.7732 13.4415L59.7407 13.1889C59.5223 12.3521 59.2486 11.6531 58.8566 10.998L57.9985 11.5115ZM56.8574 10.3152C57.3036 10.6196 57.6766 11.0091 58.0064 11.5243L58.8487 10.9853C58.4537 10.3681 57.9892 9.87679 57.4208 9.4891L56.8574 10.3152ZM55.3675 9.90673C55.9674 9.90673 56.4357 10.0302 56.859 10.3164L57.4191 9.48796C56.7956 9.06638 56.1204 8.90673 55.3675 8.90673V9.90673ZM53.8387 10.3694C54.2697 10.0735 54.7828 9.90673 55.3675 9.90673V8.90673C54.5833 8.90673 53.8724 9.13321 53.2726 9.54504L53.8387 10.3694ZM52.6303 11.6634C52.9599 11.1199 53.3779 10.6741 53.8314 10.3743L53.2799 9.54012C52.6865 9.93237 52.1704 10.4932 51.7752 11.145L52.6303 11.6634ZM44.3111 6.03633H39.9627V7.03633H44.3111V6.03633ZM44.8111 26V6.53633H43.8111V26H44.8111ZM39.9627 26.5H44.3111V25.5H39.9627V26.5ZM39.4627 6.53633V26H40.4627V6.53633H39.4627Z" fill="black"/>
<path fill-rule="evenodd" clip-rule="evenodd" d="M42.0067 2C40.9064 2 40.0134 2.89813 40.0134 4.00474C40.0134 5.16749 40.9064 6.0576 42.0067 6.00949C43.107 6.00949 44 5.11136 44 4.00474C44 2.89813 43.107 2 42.0067 2ZM15.926 10.1713C16.6436 11.1015 17.1539 12.1681 17.5207 13.3468L17.5366 13.3148C17.8954 14.5016 18.0549 15.7846 18.0549 17.1639C18.0549 18.5512 17.8954 19.8342 17.5446 21.013C17.1778 22.1918 16.6675 23.2743 15.9499 24.1404C15.2323 25.0145 14.3553 25.7281 13.2789 26.2414C12.5613 26.5541 11.7879 26.8107 10.9666 26.915C10.9666 26.915 9.42778 27.1635 7.63378 26.8107C7.01984 26.6984 6.45374 26.5541 5.93547 26.2975C5.88763 26.2975 5.88763 26.2975 5.83979 26.2414C5.83979 26.1932 5.78398 26.1932 5.78398 26.1932H5.74411C5.42518 26.0409 5.17004 25.8885 4.86705 25.68C4.19729 25.2149 3.63119 24.7097 3.11292 24.0923C2.39533 23.2102 1.88504 22.1918 1.51826 20.9649C1.15947 19.7861 1 18.503 1 17.1158C1 15.7846 1.15947 14.4535 1.51029 13.2827C1.87706 12.0478 2.38735 11.0294 3.10495 10.0992C3.82255 9.23312 4.69961 8.51141 5.73614 7.99819C6.69293 7.54913 7.7773 7.2845 9.00519 7.22837C9.83441 7.18026 10.552 7.22837 11.1101 7.3246L11.8676 7.48498C11.8676 7.54111 11.9234 7.54111 11.9633 7.54111C12.0271 7.59724 12.0749 7.59724 12.1228 7.59724C12.2264 7.59724 12.338 7.6614 12.338 7.6614C12.641 7.74159 12.9998 7.90197 13.2948 8.06234C14.3314 8.56754 15.2084 9.24113 15.926 10.1713ZM36.9835 13.3468C36.6167 12.1681 36.1064 11.1015 35.3888 10.1713C34.6712 9.24113 33.7942 8.56754 32.7576 8.06234C32.4626 7.90197 32.1038 7.74159 31.8009 7.6614C31.8009 7.6614 31.6892 7.59724 31.5856 7.59724C31.5377 7.59724 31.4819 7.59724 31.4261 7.54111C31.3783 7.54111 31.3304 7.54111 31.3304 7.48498L30.565 7.3246C30.0069 7.22837 29.2893 7.18026 28.468 7.22837C27.2401 7.2845 26.1558 7.54913 25.199 7.99819C24.1624 8.51141 23.2854 9.23312 22.5678 10.0992C21.8502 11.0294 21.3399 12.0478 20.9731 13.2827C20.6223 14.4535 20.4628 15.7846 20.4628 17.1158C20.4628 18.503 20.6223 19.7861 20.9811 20.9649C21.3479 22.1437 21.906 23.2102 22.5757 24.0923C23.094 24.7097 23.6521 25.2149 24.3299 25.68C24.6329 25.8885 25.2468 26.1932 25.2468 26.1932C25.2468 26.1932 25.2946 26.1932 25.2946 26.2414C25.3288 26.2414 25.3447 26.2575 25.3594 26.2724C25.3722 26.2854 25.3841 26.2975 25.4063 26.2975C25.9245 26.5541 26.4827 26.6984 27.1046 26.8107C28.8986 27.1635 30.4374 26.915 30.4374 26.915C31.2587 26.8107 32.0321 26.5541 32.7497 26.2414C33.8261 25.7281 34.6952 25.0145 35.4207 24.1404C36.1383 23.2743 36.6486 22.1918 37.0154 21.013C37.3662 19.8342 37.5177 18.5512 37.5177 17.1639C37.5177 15.7846 37.3184 14.5016 37.0074 13.3148L36.9835 13.3468ZM24.9677 14.4695C25.175 13.6676 25.4302 12.8898 25.789 12.2723C26.1478 11.6629 26.6102 11.1497 27.1205 10.7968C27.6388 10.436 28.2527 10.2355 28.9145 10.2355C29.5843 10.2355 30.1504 10.3798 30.6686 10.7407C31.1789 11.0935 31.5856 11.5426 31.9444 12.1199C32.3032 12.7374 32.5583 13.403 32.7656 14.2209C32.9809 15.0389 33.0846 15.8648 33.0846 16.787V17.0917C33.0846 18.0139 32.9809 18.9361 32.8294 19.754C32.6221 20.58 32.367 21.2937 32.0082 21.9191C31.6494 22.5286 31.1869 22.9857 30.6686 23.3465C30.1584 23.7074 29.5524 23.8597 28.8747 23.8597C28.2049 23.8597 27.5989 23.6993 27.0807 23.3465C26.5624 22.9857 26.0999 22.5286 25.7411 21.9031C25.3744 21.2937 25.1192 20.58 24.9119 19.754C24.7126 18.9361 24.6568 18.0139 24.6568 17.0917C24.7126 16.2096 24.8162 15.2955 24.9757 14.4775L24.9677 14.4695ZM5.56073 14.4695C5.76006 13.6676 6.0152 12.8898 6.374 12.2723C6.7328 11.6629 7.19525 11.1497 7.71352 10.7968C8.22381 10.436 8.82978 10.2355 9.50751 10.2355C10.1773 10.2355 10.7434 10.3798 11.2616 10.7407C11.764 11.0935 12.1786 11.5426 12.5374 12.1199C12.8962 12.7374 13.1513 13.403 13.3586 14.2209C13.5659 15.0389 13.6775 15.8648 13.6775 16.787L13.6616 17.0917C13.6616 18.0139 13.5659 18.9361 13.4065 19.754C13.2071 20.58 12.944 21.2937 12.5852 21.9191C12.2344 22.5286 11.7719 22.9857 11.2616 23.3465C10.7513 23.7074 10.1294 23.8597 9.46764 23.8597C8.78991 23.8597 8.17597 23.6993 7.6577 23.3465C7.14741 22.9857 6.68496 22.5286 6.32616 21.9031C6.00723 21.3979 5.76803 20.6842 5.55275 19.8182C5.34545 18.9922 5.28963 18.054 5.28963 17.1398C5.28963 16.2176 5.34545 15.2955 5.54478 14.4775L5.56073 14.4695Z" fill="white"/>
<path d="M42.0067 6.00949V5.50949H41.9957L41.9848 5.50996L42.0067 6.00949ZM17.5207 13.3468L17.0433 13.4954L17.4136 14.6856L17.9684 13.5694L17.5207 13.3468ZM15.926 10.1713L15.5301 10.4767L15.5301 10.4767L15.926 10.1713ZM17.5366 13.3148L18.0152 13.1701L17.6503 11.9629L17.0889 13.0922L17.5366 13.3148ZM17.5446 21.013L18.0221 21.1615L18.0238 21.1556L17.5446 21.013ZM15.9499 24.1404L15.5649 23.8214L15.5635 23.8231L15.9499 24.1404ZM13.2789 26.2414L13.4786 26.6997L13.4864 26.6963L13.4941 26.6927L13.2789 26.2414ZM10.9666 26.915L10.9037 26.4189L10.8953 26.42L10.8869 26.4214L10.9666 26.915ZM7.63378 26.8107L7.73028 26.3201L7.72372 26.3189L7.63378 26.8107ZM5.93547 26.2975L6.15733 25.8494L6.05248 25.7975H5.93547V26.2975ZM5.83979 26.2414H5.33979V26.4255L5.45925 26.5657L5.83979 26.2414ZM5.78398 26.1932L5.78398 26.6932L5.784 26.6932L5.78398 26.1932ZM5.74411 26.1932L5.52858 26.6444L5.63081 26.6932H5.74411V26.1932ZM4.86705 25.68L4.58185 26.0907L4.58361 26.0919L4.86705 25.68ZM3.11292 24.0923L2.72502 24.4078L2.72995 24.4137L3.11292 24.0923ZM1.51826 20.9649L1.99732 20.8217L1.9966 20.8193L1.51826 20.9649ZM1.51029 13.2827L1.98925 13.4262L1.9896 13.4251L1.51029 13.2827ZM3.10495 10.0992L2.71994 9.78015L2.71438 9.78686L2.70906 9.79376L3.10495 10.0992ZM5.73614 7.99819L5.52366 7.54547L5.51428 7.55011L5.73614 7.99819ZM9.00519 7.22837L9.02803 7.72789L9.03415 7.72753L9.00519 7.22837ZM11.1101 7.3246L11.2137 6.83544L11.2044 6.83348L11.1951 6.83187L11.1101 7.3246ZM11.8676 7.48498H12.3676V7.07976L11.9712 6.99582L11.8676 7.48498ZM11.9633 7.54111L12.2936 7.16576L12.152 7.04111H11.9633V7.54111ZM12.338 7.6614L12.0889 8.0949L12.1462 8.12784L12.2101 8.14475L12.338 7.6614ZM13.2948 8.06234L13.056 8.50163L13.0658 8.50693L13.0758 8.5118L13.2948 8.06234ZM35.3888 10.1713L34.9929 10.4767L34.9929 10.4767L35.3888 10.1713ZM36.9835 13.3468L36.5061 13.4954L36.7977 14.4325L37.3843 13.6457L36.9835 13.3468ZM32.7576 8.06234L32.5188 8.50163L32.5286 8.50693L32.5386 8.5118L32.7576 8.06234ZM31.8009 7.6614L31.5517 8.0949L31.609 8.12784L31.6729 8.14475L31.8009 7.6614ZM31.4261 7.54111L31.7807 7.18857L31.6341 7.04111H31.4261V7.54111ZM31.3304 7.48498H31.8304V7.07888L31.433 6.99561L31.3304 7.48498ZM30.565 7.3246L30.6675 6.83523L30.6588 6.83339L30.6499 6.83187L30.565 7.3246ZM28.468 7.22837L28.4908 7.72789L28.4973 7.72752L28.468 7.22837ZM25.199 7.99819L24.9865 7.54547L24.9771 7.55011L25.199 7.99819ZM22.5678 10.0992L22.1828 9.78015L22.1772 9.78686L22.1719 9.79376L22.5678 10.0992ZM20.9731 13.2827L21.4521 13.4262L21.4524 13.4251L20.9731 13.2827ZM20.9811 20.9649L20.5027 21.1105L20.5037 21.1134L20.9811 20.9649ZM22.5757 24.0923L22.1775 24.3946L22.1849 24.4044L22.1928 24.4137L22.5757 24.0923ZM24.3299 25.68L24.6133 25.2681L24.6128 25.2678L24.3299 25.68ZM25.2468 26.1932L25.0245 26.6411L25.1296 26.6933L25.2468 26.6932L25.2468 26.1932ZM25.2946 26.2414H24.7946V26.7414H25.2946V26.2414ZM25.3594 26.2724L25.003 26.6231L25.003 26.6232L25.3594 26.2724ZM25.4063 26.2975L25.6281 25.8494L25.5233 25.7975H25.4063V26.2975ZM27.1046 26.8107L27.2011 26.32L27.1934 26.3187L27.1046 26.8107ZM30.4374 26.915L30.3745 26.4189L30.366 26.42L30.3577 26.4214L30.4374 26.915ZM32.7497 26.2414L32.9494 26.6997L32.9572 26.6963L32.9649 26.6927L32.7497 26.2414ZM35.4207 24.1404L35.8055 24.4597L35.8057 24.4594L35.4207 24.1404ZM37.0154 21.013L37.4928 21.1615L37.4946 21.1556L37.0154 21.013ZM37.0074 13.3148L37.4911 13.188L37.2277 12.1829L36.6066 13.0159L37.0074 13.3148ZM25.789 12.2723L25.3581 12.0186L25.3567 12.0211L25.789 12.2723ZM24.9677 14.4695L24.4836 14.3444L24.4124 14.6201L24.6132 14.822L24.9677 14.4695ZM27.1205 10.7968L27.4049 11.2081L27.4062 11.2071L27.1205 10.7968ZM30.6686 10.7407L30.3829 11.151L30.3843 11.1519L30.6686 10.7407ZM31.9444 12.1199L32.3767 11.8687L32.373 11.8623L32.369 11.856L31.9444 12.1199ZM32.7656 14.2209L32.2809 14.3438L32.2821 14.3482L32.7656 14.2209ZM32.8294 19.754L33.3144 19.8757L33.3182 19.8605L33.321 19.8451L32.8294 19.754ZM32.0082 21.9191L32.4391 22.1728L32.4419 22.1679L32.0082 21.9191ZM30.6686 23.3465L30.3829 22.9362L30.38 22.9383L30.6686 23.3465ZM27.0807 23.3465L26.7949 23.7569L26.7993 23.7598L27.0807 23.3465ZM25.7411 21.9031L26.1749 21.6542L26.1695 21.6453L25.7411 21.9031ZM24.9119 19.754L24.4261 19.8724L24.427 19.8757L24.9119 19.754ZM24.6568 17.0917L24.1578 17.0601L24.1568 17.0759V17.0917H24.6568ZM24.9757 14.4775L25.4665 14.5732L25.5172 14.313L25.3303 14.125L24.9757 14.4775ZM6.374 12.2723L5.94312 12.0186L5.94169 12.0211L6.374 12.2723ZM5.56073 14.4695L5.78537 14.9162L5.99056 14.813L6.04596 14.5901L5.56073 14.4695ZM7.71352 10.7968L7.99494 11.2102L8.0022 11.2051L7.71352 10.7968ZM11.2616 10.7407L11.549 10.3315L11.5473 10.3303L11.2616 10.7407ZM12.5374 12.1199L12.9697 11.8687L12.966 11.8623L12.962 11.856L12.5374 12.1199ZM13.3586 14.2209L12.8739 14.3438L12.8739 14.3438L13.3586 14.2209ZM13.6775 16.787L14.1769 16.8131L14.1775 16.8001V16.787H13.6775ZM13.6616 17.0917L13.1623 17.0656L13.1616 17.0786V17.0917H13.6616ZM13.4065 19.754L13.8925 19.8713L13.8951 19.8606L13.8972 19.8497L13.4065 19.754ZM12.5852 21.9191L13.0185 22.1686L13.0189 22.1679L12.5852 21.9191ZM11.2616 23.3465L11.5503 23.7548L11.5503 23.7548L11.2616 23.3465ZM7.6577 23.3465L7.36897 23.7548L7.37632 23.7598L7.6577 23.3465ZM6.32616 21.9031L6.75987 21.6543L6.75461 21.6451L6.74896 21.6362L6.32616 21.9031ZM5.55275 19.8182L6.03799 19.6975L6.03771 19.6964L5.55275 19.8182ZM5.54478 14.4775L5.32014 14.0308L5.11371 14.1346L5.059 14.3591L5.54478 14.4775ZM40.5134 4.00474C40.5134 3.17157 41.1852 2.5 42.0067 2.5V1.5C40.6275 1.5 39.5134 2.62468 39.5134 4.00474H40.5134ZM41.9848 5.50996C41.1912 5.54467 40.5134 4.90551 40.5134 4.00474H39.5134C39.5134 5.42947 40.6215 6.57053 42.0285 6.50901L41.9848 5.50996ZM43.5 4.00474C43.5 4.83792 42.8282 5.50949 42.0067 5.50949V6.50949C43.3858 6.50949 44.5 5.38481 44.5 4.00474H43.5ZM42.0067 2.5C42.8282 2.5 43.5 3.17157 43.5 4.00474H44.5C44.5 2.62468 43.3858 1.5 42.0067 1.5V2.5ZM17.9981 13.1983C17.6177 11.9756 17.0831 10.8527 16.3219 9.86593L15.5301 10.4767C16.2041 11.3504 16.6902 12.3606 17.0433 13.4954L17.9981 13.1983ZM17.0889 13.0922L17.0729 13.1243L17.9684 13.5694L17.9843 13.5373L17.0889 13.0922ZM18.5549 17.1639C18.5549 15.7466 18.3911 14.4133 18.0152 13.1701L17.058 13.4595C17.3998 14.5899 17.5549 15.8226 17.5549 17.1639H18.5549ZM18.0238 21.1556C18.3911 19.9214 18.5549 18.5889 18.5549 17.1639H17.5549C17.5549 18.5134 17.3997 19.747 17.0654 20.8704L18.0238 21.1556ZM16.3349 24.4594C17.1073 23.5272 17.6431 22.3793 18.022 21.1615L17.0672 20.8644C16.7125 22.0042 16.2277 23.0215 15.5649 23.8214L16.3349 24.4594ZM13.4941 26.6927C14.6406 26.146 15.5751 25.385 16.3364 24.4577L15.5635 23.8231C14.8896 24.644 14.0699 25.3103 13.0637 25.79L13.4941 26.6927ZM11.0296 27.411C11.9128 27.2989 12.7336 27.0244 13.4786 26.6997L13.0791 25.783C12.3889 26.0838 11.663 26.3225 10.9037 26.4189L11.0296 27.411ZM7.5373 27.3013C8.48073 27.4869 9.35299 27.5137 9.98776 27.4949C10.306 27.4855 10.5667 27.4645 10.7495 27.4456C10.841 27.4362 10.9131 27.4273 10.9634 27.4205C10.9886 27.4171 11.0082 27.4143 11.0222 27.4123C11.0291 27.4112 11.0347 27.4104 11.0387 27.4098C11.0407 27.4094 11.0424 27.4092 11.0437 27.409C11.0443 27.4089 11.0448 27.4088 11.0453 27.4087C11.0455 27.4087 11.0457 27.4087 11.0459 27.4086C11.046 27.4086 11.0461 27.4086 11.0461 27.4086C11.0463 27.4086 11.0464 27.4086 10.9666 26.915C10.8869 26.4214 10.887 26.4213 10.8871 26.4213C10.8871 26.4213 10.8872 26.4213 10.8872 26.4213C10.8873 26.4213 10.8874 26.4213 10.8874 26.4213C10.8875 26.4213 10.8875 26.4213 10.8873 26.4213C10.8871 26.4213 10.8865 26.4214 10.8856 26.4216C10.8837 26.4218 10.8804 26.4224 10.8756 26.4231C10.8661 26.4245 10.851 26.4266 10.8306 26.4294C10.7897 26.4349 10.7276 26.4426 10.6468 26.4509C10.485 26.4676 10.2489 26.4867 9.95814 26.4954C9.37499 26.5126 8.58083 26.4874 7.73027 26.3201L7.5373 27.3013ZM5.71361 26.7456C6.29328 27.0326 6.91241 27.1871 7.54385 27.3026L7.72372 26.3189C7.12727 26.2098 6.61419 26.0756 6.15733 25.8494L5.71361 26.7456ZM5.45925 26.5657C5.4677 26.5756 5.48654 26.598 5.50515 26.6176C5.52373 26.6372 5.56797 26.6826 5.63462 26.7217C5.71282 26.7676 5.78865 26.7862 5.8488 26.7932C5.89186 26.7983 5.93434 26.7975 5.93547 26.7975V25.7975C5.91269 25.7975 5.93723 25.7967 5.96534 25.8C6.01053 25.8053 6.0744 25.8204 6.14064 25.8592C6.19534 25.8913 6.22762 25.9262 6.23125 25.93C6.2349 25.9339 6.23581 25.9352 6.22034 25.917L5.45925 26.5657ZM5.78398 26.1932C5.784 26.6932 5.78379 26.6932 5.78358 26.6932C5.78351 26.6932 5.78329 26.6932 5.78315 26.6932C5.78287 26.6932 5.78259 26.6932 5.78231 26.6932C5.78175 26.6932 5.78118 26.6932 5.78062 26.6932C5.77948 26.6932 5.77835 26.6932 5.77721 26.6932C5.77492 26.6932 5.77261 26.6931 5.77026 26.6931C5.76559 26.6929 5.76071 26.6927 5.75566 26.6924C5.74572 26.6918 5.73427 26.6907 5.72161 26.6889C5.69885 26.6856 5.65985 26.6782 5.61398 26.6584C5.56808 26.6386 5.49653 26.5983 5.43555 26.5194C5.36918 26.4336 5.33979 26.3335 5.33979 26.2414H6.33979C6.33979 26.1251 6.30343 26.007 6.22659 25.9077C6.15515 25.8153 6.06965 25.7659 6.00979 25.7401C5.94997 25.7143 5.89702 25.7039 5.86379 25.6991C5.8459 25.6965 5.83009 25.6951 5.81709 25.6943C5.81051 25.6939 5.80444 25.6936 5.79895 25.6935C5.7962 25.6934 5.79357 25.6933 5.79107 25.6933C5.78983 25.6933 5.78861 25.6933 5.78742 25.6933C5.78683 25.6933 5.78625 25.6933 5.78567 25.6932C5.78538 25.6932 5.78509 25.6932 5.78481 25.6932C5.78467 25.6932 5.78446 25.6932 5.78438 25.6932C5.78417 25.6932 5.78396 25.6932 5.78398 26.1932ZM5.74411 26.6932H5.78398V25.6932H5.74411V26.6932ZM4.58361 26.0919C4.90399 26.3124 5.18185 26.4788 5.52858 26.6444L5.95964 25.7421C5.66852 25.603 5.43608 25.4647 5.15049 25.2681L4.58361 26.0919ZM2.72995 24.4137C3.27916 25.0681 3.87897 25.6026 4.58186 26.0907L5.15224 25.2693C4.51562 24.8272 3.98321 24.3514 3.4959 23.7708L2.72995 24.4137ZM1.03921 21.1081C1.42135 22.3864 1.95912 23.4663 2.72506 24.4078L3.50079 23.7767C2.83154 22.9541 2.34872 21.9972 1.99732 20.8217L1.03921 21.1081ZM0.5 17.1158C0.5 18.5407 0.66372 19.8745 1.03993 21.1105L1.9966 20.8193C1.65521 19.6977 1.5 18.4654 1.5 17.1158H0.5ZM1.03133 13.1392C0.663526 14.3666 0.5 15.7478 0.5 17.1158H1.5C1.5 15.8214 1.65541 14.5403 1.98925 13.4262L1.03133 13.1392ZM2.70906 9.79376C1.95042 10.7772 1.41361 11.852 1.03098 13.1403L1.9896 13.4251C2.34052 12.2435 2.82429 11.2816 3.50084 10.4046L2.70906 9.79376ZM5.51428 7.55011C4.40999 8.09687 3.47863 8.86452 2.71994 9.78015L3.48996 10.4182C4.16647 9.60171 4.98923 8.92594 5.958 8.44628L5.51428 7.55011ZM8.98236 6.72889C7.69503 6.78774 6.5454 7.06605 5.5237 7.54557L5.94858 8.45082C6.84047 8.03222 7.85958 7.78126 9.02803 7.72785L8.98236 6.72889ZM11.1951 6.83187C10.5959 6.72857 9.83992 6.6791 8.97623 6.72921L9.03415 7.72753C9.82891 7.68142 10.5081 7.72817 11.0252 7.81733L11.1951 6.83187ZM11.9712 6.99582L11.2137 6.83544L11.0066 7.81375L11.764 7.97413L11.9712 6.99582ZM11.9633 7.04111C11.9503 7.04111 11.9593 7.04085 11.9718 7.04186C11.9836 7.04281 12.0235 7.04645 12.0742 7.06525C12.1281 7.08523 12.2113 7.12893 12.2785 7.21955C12.3482 7.31343 12.3676 7.41295 12.3676 7.48498H11.3676C11.3676 7.58508 11.394 7.70564 11.4754 7.81531C11.5543 7.92172 11.6539 7.97595 11.7268 8.00294C11.7964 8.02876 11.8578 8.0359 11.8912 8.03861C11.9254 8.04137 11.9564 8.04111 11.9633 8.04111V7.04111ZM12.1228 7.09724C12.0931 7.09724 12.1327 7.09488 12.1797 7.10761C12.2368 7.12306 12.2756 7.14989 12.2936 7.16576L11.633 7.91647C11.7148 7.98846 11.8094 8.04336 11.9183 8.07285C12.0172 8.09961 12.1046 8.09724 12.1228 8.09724V7.09724ZM12.338 7.6614C12.5872 7.22789 12.5871 7.22784 12.587 7.22779C12.587 7.22777 12.5869 7.22772 12.5868 7.22769C12.5867 7.22762 12.5866 7.22755 12.5865 7.22748C12.5862 7.22735 12.586 7.2272 12.5857 7.22705C12.5852 7.22676 12.5846 7.22645 12.5841 7.22612C12.5829 7.22546 12.5816 7.22474 12.5802 7.22395C12.5774 7.22238 12.5741 7.22054 12.5703 7.2185C12.5627 7.21441 12.5531 7.20938 12.5417 7.20374C12.5194 7.19263 12.4887 7.1783 12.4519 7.16388C12.3876 7.13863 12.2659 7.09724 12.1228 7.09724V8.09724C12.0833 8.09724 12.0692 8.08794 12.0866 8.09476C12.0907 8.09638 12.0944 8.09809 12.0962 8.099C12.0969 8.09938 12.0969 8.09936 12.0958 8.09878C12.0953 8.09849 12.0944 8.09804 12.0933 8.0974C12.0927 8.09709 12.0921 8.09672 12.0913 8.09631C12.091 8.0961 12.0906 8.09588 12.0902 8.09564C12.09 8.09553 12.0898 8.09541 12.0896 8.09528C12.0894 8.09522 12.0893 8.09516 12.0892 8.0951C12.0892 8.09507 12.0891 8.09502 12.0891 8.095C12.089 8.09495 12.0889 8.0949 12.338 7.6614ZM13.5336 7.62306C13.2198 7.45245 12.822 7.27228 12.466 7.17804L12.2101 8.14475C12.46 8.21089 12.7798 8.35148 13.056 8.50163L13.5336 7.62306ZM16.3219 9.86593C15.5519 8.86785 14.6114 8.14781 13.5139 7.61289L13.0758 8.5118C14.0513 8.98727 14.8649 9.61442 15.5301 10.4767L16.3219 9.86593ZM34.9929 10.4767C35.6669 11.3504 36.153 12.3606 36.5061 13.4954L37.4609 13.1983C37.0805 11.9756 36.546 10.8527 35.7847 9.86593L34.9929 10.4767ZM32.5386 8.5118C33.5141 8.98727 34.3277 9.61442 34.9929 10.4767L35.7847 9.86593C35.0148 8.86785 34.0742 8.14781 32.9767 7.61289L32.5386 8.5118ZM31.6729 8.14475C31.9228 8.21089 32.2427 8.35148 32.5188 8.50163L32.9965 7.62306C32.6826 7.45245 32.2849 7.27228 31.9288 7.17804L31.6729 8.14475ZM31.5856 8.09724C31.5461 8.09724 31.532 8.08794 31.5494 8.09476C31.5536 8.09638 31.5572 8.09809 31.559 8.099C31.5598 8.09938 31.5597 8.09936 31.5586 8.09878C31.5581 8.09849 31.5573 8.09804 31.5561 8.0974C31.5556 8.09709 31.5549 8.09672 31.5542 8.09631C31.5538 8.0961 31.5534 8.09588 31.553 8.09564C31.5528 8.09553 31.5526 8.09541 31.5524 8.09528C31.5523 8.09522 31.5522 8.09516 31.552 8.0951C31.552 8.09507 31.5519 8.09502 31.5519 8.095C31.5518 8.09495 31.5517 8.0949 31.8009 7.6614C32.05 7.22789 32.0499 7.22784 32.0498 7.22779C32.0498 7.22777 32.0497 7.22772 32.0496 7.22769C32.0495 7.22762 32.0494 7.22755 32.0493 7.22748C32.049 7.22735 32.0488 7.2272 32.0485 7.22705C32.048 7.22676 32.0475 7.22645 32.0469 7.22612C32.0457 7.22546 32.0444 7.22474 32.043 7.22395C32.0402 7.22238 32.0369 7.22054 32.0331 7.2185C32.0255 7.21441 32.0159 7.20938 32.0046 7.20374C31.9822 7.19263 31.9515 7.1783 31.9148 7.16388C31.8504 7.13863 31.7287 7.09724 31.5856 7.09724V8.09724ZM31.0715 7.89365C31.28 8.10326 31.5215 8.09724 31.5856 8.09724V7.09724C31.5552 7.09724 31.5911 7.09496 31.635 7.1064C31.6604 7.11303 31.6881 7.12359 31.7157 7.13933C31.7431 7.15499 31.7647 7.17253 31.7807 7.18857L31.0715 7.89365ZM30.8304 7.48498C30.8304 7.56956 30.8489 7.68349 30.9219 7.79368C30.9965 7.90622 31.0969 7.96795 31.1782 7.99974C31.2527 8.0289 31.3186 8.0361 31.352 8.03871C31.3862 8.04139 31.4183 8.04111 31.4261 8.04111V7.04111C31.41 7.04111 31.4182 7.04084 31.43 7.04176C31.4409 7.04261 31.4859 7.04631 31.5425 7.06845C31.6058 7.09323 31.6913 7.14442 31.7554 7.24118C31.818 7.33558 31.8304 7.42846 31.8304 7.48498H30.8304ZM30.4625 7.81397L31.2279 7.97435L31.433 6.99561L30.6675 6.83523L30.4625 7.81397ZM28.4973 7.72752C29.2837 7.68144 29.9628 7.72814 30.48 7.81733L30.6499 6.83187C30.051 6.7286 29.2949 6.67907 28.4388 6.72923L28.4973 7.72752ZM25.4114 8.45082C26.3033 8.03222 27.3224 7.78126 28.4908 7.72785L28.4452 6.72889C27.1578 6.78774 26.0082 7.06605 24.9865 7.54557L25.4114 8.45082ZM22.9528 10.4182C23.6293 9.60171 24.452 8.92594 25.4208 8.44628L24.9771 7.55011C23.8728 8.09687 22.9414 8.86452 22.1828 9.78015L22.9528 10.4182ZM21.4524 13.4251C21.8033 12.2435 22.2871 11.2816 22.9637 10.4046L22.1719 9.79376C21.4132 10.7772 20.8764 11.852 20.4938 13.1403L21.4524 13.4251ZM20.9628 17.1158C20.9628 15.8214 21.1182 14.5403 21.4521 13.4262L20.4942 13.1392C20.1263 14.3666 19.9628 15.7478 19.9628 17.1158H20.9628ZM21.4594 20.8193C21.118 19.6977 20.9628 18.4654 20.9628 17.1158H19.9628C19.9628 18.5407 20.1265 19.8745 20.5028 21.1105L21.4594 20.8193ZM22.974 23.7899C22.3399 22.9548 21.8083 21.9405 21.4585 20.8163L20.5037 21.1134C20.8874 22.3469 21.4721 23.4656 22.1775 24.3946L22.974 23.7899ZM24.6128 25.2678C23.9716 24.8278 23.4473 24.3529 22.9587 23.7708L22.1928 24.4137C22.7407 25.0665 23.3327 25.6021 24.047 26.0923L24.6128 25.2678ZM25.2468 26.1932C25.4691 25.7454 25.4691 25.7454 25.4691 25.7454C25.4691 25.7454 25.4691 25.7454 25.4691 25.7454C25.4691 25.7454 25.4691 25.7454 25.4691 25.7454C25.4691 25.7454 25.469 25.7453 25.4689 25.7453C25.4687 25.7452 25.4684 25.745 25.4679 25.7448C25.4669 25.7443 25.4653 25.7435 25.4632 25.7425C25.4591 25.7404 25.4527 25.7372 25.4445 25.733C25.4279 25.7247 25.4037 25.7125 25.3736 25.6971C25.3133 25.6663 25.2299 25.6232 25.1376 25.5738C24.9466 25.4718 24.7395 25.3549 24.6133 25.2681L24.0464 26.0919C24.2233 26.2136 24.4746 26.3534 24.6663 26.4558C24.7654 26.5087 24.8544 26.5548 24.9187 26.5876C24.9508 26.6041 24.977 26.6173 24.9952 26.6264C25.0043 26.631 25.0115 26.6346 25.0164 26.6371C25.0189 26.6383 25.0208 26.6393 25.0222 26.64C25.0229 26.6403 25.0234 26.6406 25.0238 26.6408C25.024 26.6409 25.0241 26.6409 25.0243 26.641C25.0243 26.641 25.0244 26.641 25.0244 26.6411C25.0244 26.6411 25.0245 26.6411 25.0245 26.6411C25.0245 26.6411 25.0245 26.6411 25.2468 26.1932ZM25.7946 26.2414C25.7946 26.1424 25.7686 26.0349 25.7039 25.9373C25.6412 25.8426 25.5609 25.7855 25.4953 25.7526C25.4318 25.7206 25.3743 25.7071 25.3369 25.7009C25.317 25.6975 25.2993 25.6957 25.2847 25.6946C25.2772 25.6941 25.2704 25.6937 25.2641 25.6935C25.2609 25.6934 25.2579 25.6934 25.255 25.6933C25.2536 25.6933 25.2522 25.6933 25.2508 25.6933C25.2501 25.6933 25.2494 25.6933 25.2488 25.6933C25.2484 25.6932 25.2481 25.6932 25.2478 25.6932C25.2476 25.6932 25.2474 25.6932 25.2473 25.6932C25.247 25.6932 25.2468 25.6932 25.2468 26.1932C25.2468 26.6932 25.2466 26.6932 25.2463 26.6932C25.2462 26.6932 25.246 26.6932 25.2458 26.6932C25.2455 26.6932 25.2452 26.6932 25.2449 26.6932C25.2442 26.6932 25.2435 26.6932 25.2429 26.6932C25.2415 26.6932 25.2402 26.6932 25.2388 26.6932C25.2362 26.6931 25.2334 26.6931 25.2306 26.693C25.225 26.6928 25.2192 26.6925 25.213 26.6921C25.201 26.6912 25.187 26.6897 25.1716 26.6871C25.1432 26.6824 25.0976 26.6719 25.0461 26.646C24.9925 26.619 24.9242 26.5709 24.8704 26.4898C24.8147 26.4057 24.7946 26.3162 24.7946 26.2414H25.7946ZM25.7158 25.9217C25.7137 25.9196 25.6626 25.8641 25.5869 25.8198C25.4982 25.7678 25.3981 25.7414 25.2946 25.7414V26.7414C25.2253 26.7414 25.1503 26.7229 25.0817 26.6828C25.0262 26.6503 24.9904 26.6103 25.003 26.6231L25.7158 25.9217ZM25.4063 25.7975C25.497 25.7975 25.5802 25.8253 25.6465 25.8672C25.6963 25.8987 25.7298 25.936 25.7158 25.9217L25.003 26.6232C25.0087 26.6289 25.1539 26.7975 25.4063 26.7975V25.7975ZM27.1934 26.3187C26.5911 26.2099 26.0856 26.0759 25.6281 25.8494L25.1844 26.7456C25.7635 27.0323 26.3742 27.1869 27.0158 27.3028L27.1934 26.3187ZM30.4374 26.915C30.3577 26.4214 30.3578 26.4213 30.3579 26.4213C30.3579 26.4213 30.358 26.4213 30.358 26.4213C30.3581 26.4213 30.3582 26.4213 30.3582 26.4213C30.3583 26.4213 30.3582 26.4213 30.3581 26.4213C30.3579 26.4213 30.3573 26.4214 30.3564 26.4216C30.3545 26.4218 30.3512 26.4224 30.3464 26.4231C30.3369 26.4245 30.3218 26.4266 30.3014 26.4294C30.2605 26.4349 30.1984 26.4426 30.1176 26.4509C29.9558 26.4676 29.7197 26.4867 29.4289 26.4954C28.8458 26.5126 28.0516 26.4874 27.2011 26.3201L27.0081 27.3013C27.9515 27.4869 28.8238 27.5137 29.4586 27.4949C29.7768 27.4855 30.0375 27.4645 30.2203 27.4456C30.3118 27.4362 30.3839 27.4273 30.4342 27.4205C30.4593 27.4171 30.479 27.4143 30.493 27.4123C30.4999 27.4112 30.5055 27.4104 30.5095 27.4098C30.5115 27.4094 30.5132 27.4092 30.5145 27.409C30.5151 27.4089 30.5156 27.4088 30.5161 27.4087C30.5163 27.4087 30.5165 27.4087 30.5167 27.4086C30.5168 27.4086 30.5169 27.4086 30.5169 27.4086C30.5171 27.4086 30.5172 27.4086 30.4374 26.915ZM32.5499 25.783C31.8597 26.0838 31.1338 26.3225 30.3745 26.4189L30.5004 27.411C31.3836 27.2989 32.2044 27.0244 32.9494 26.6997L32.5499 25.783ZM35.036 23.821C34.3521 24.6449 33.5393 25.311 32.5345 25.79L32.9649 26.6927C34.1129 26.1453 35.0382 25.384 35.8055 24.4597L35.036 23.821ZM36.538 20.8644C36.1833 22.0042 35.6985 23.0215 35.0357 23.8214L35.8057 24.4594C36.5781 23.5272 37.1139 22.3793 37.4928 21.1615L36.538 20.8644ZM37.0177 17.1639C37.0177 18.5157 36.87 19.7487 36.5362 20.8704L37.4946 21.1556C37.8624 19.9197 38.0177 18.5866 38.0177 17.1639H37.0177ZM36.5237 13.4415C36.8255 14.5932 37.0177 15.8334 37.0177 17.1639H38.0177C38.0177 15.7358 37.8113 14.41 37.4911 13.188L36.5237 13.4415ZM37.3843 13.6457L37.4082 13.6137L36.6066 13.0159L36.5827 13.048L37.3843 13.6457ZM25.3567 12.0211C24.9628 12.6989 24.6941 13.5303 24.4836 14.3444L25.4518 14.5947C25.656 13.805 25.8976 13.0806 26.2213 12.5235L25.3567 12.0211ZM26.8362 10.3856C26.258 10.7853 25.7484 11.3558 25.3581 12.0186L26.2199 12.526C26.5472 11.97 26.9624 11.514 27.4049 11.2081L26.8362 10.3856ZM28.9145 9.73549C28.149 9.73549 27.4356 9.96818 26.8348 10.3865L27.4062 11.2071C27.842 10.9037 28.3565 10.7355 28.9145 10.7355V9.73549ZM30.9543 10.3303C30.3353 9.8993 29.6636 9.73549 28.9145 9.73549V10.7355C29.505 10.7355 29.9655 10.8604 30.3829 11.151L30.9543 10.3303ZM32.369 11.856C31.9805 11.2307 31.5289 10.7276 30.953 10.3294L30.3843 11.1519C30.829 11.4595 31.1907 11.8544 31.5197 12.3839L32.369 11.856ZM33.2503 14.0981C33.0344 13.2464 32.764 12.5353 32.3767 11.8687L31.5121 12.3712C31.8423 12.9396 32.0822 13.5596 32.2809 14.3438L33.2503 14.0981ZM33.5846 16.787C33.5846 15.8251 33.4762 14.9561 33.2492 14.0937L32.2821 14.3482C32.4856 15.1216 32.5846 15.9045 32.5846 16.787H33.5846ZM33.5846 17.0917V16.787H32.5846V17.0917H33.5846ZM33.321 19.8451C33.4771 19.0027 33.5846 18.0497 33.5846 17.0917H32.5846C32.5846 17.9781 32.4847 18.8694 32.3378 19.663L33.321 19.8451ZM32.4419 22.1679C32.8313 21.4891 33.1005 20.728 33.3144 19.8757L32.3444 19.6323C32.1437 20.432 31.9026 21.0982 31.5744 21.6703L32.4419 22.1679ZM30.9543 23.7568C31.5226 23.3612 32.0385 22.8532 32.439 22.1728L31.5773 21.6655C31.2603 22.2039 30.8512 22.6101 30.3829 22.9362L30.9543 23.7568ZM28.8747 24.3597C29.6282 24.3597 30.3426 24.1895 30.9573 23.7548L30.38 22.9383C29.9741 23.2253 29.4765 23.3597 28.8747 23.3597V24.3597ZM26.7993 23.7598C27.4145 24.1786 28.1228 24.3597 28.8747 24.3597V23.3597C28.2869 23.3597 27.7834 23.2201 27.362 22.9332L26.7993 23.7598ZM25.3074 22.1519C25.7086 22.8512 26.226 23.3607 26.795 23.7568L27.3664 22.9362C26.8988 22.6106 26.4913 22.2059 26.1749 21.6543L25.3074 22.1519ZM24.427 19.8757C24.6405 20.7266 24.9106 21.4928 25.3127 22.1609L26.1695 21.6453C25.8381 21.0945 25.5979 20.4333 25.3969 19.6323L24.427 19.8757ZM24.1568 17.0917C24.1568 18.0286 24.2128 18.9971 24.4261 19.8724L25.3977 19.6356C25.2123 18.875 25.1568 17.9992 25.1568 17.0917H24.1568ZM24.4849 14.3818C24.3203 15.2263 24.2146 16.1627 24.1578 17.0601L25.1558 17.1233C25.2106 16.2566 25.3122 15.3647 25.4665 14.5732L24.4849 14.3818ZM24.6132 14.822L24.6211 14.83L25.3303 14.125L25.3223 14.117L24.6132 14.822ZM5.94169 12.0211C5.54749 12.6995 5.27876 13.5312 5.07549 14.3489L6.04596 14.5901C6.24136 13.804 6.48292 13.0801 6.80631 12.5235L5.94169 12.0211ZM7.43214 10.3835C6.84394 10.7839 6.33347 11.3556 5.94313 12.0186L6.80488 12.526C7.13213 11.9701 7.54656 11.5154 7.9949 11.2101L7.43214 10.3835ZM9.50751 9.73549C8.72665 9.73549 8.01977 9.96786 7.42483 10.3886L8.0022 11.2051C8.42785 10.9041 8.93291 10.7355 9.50751 10.7355V9.73549ZM11.5473 10.3303C10.9283 9.8993 10.2566 9.73549 9.50751 9.73549V10.7355C10.098 10.7355 10.5585 10.8604 10.9759 11.151L11.5473 10.3303ZM12.962 11.856C12.5718 11.2281 12.1124 10.7272 11.549 10.3315L10.9742 11.1498C11.4155 11.4598 11.7853 11.8571 12.1127 12.3839L12.962 11.856ZM13.8433 14.0981C13.6274 13.2464 13.357 12.5353 12.9697 11.8687L12.1051 12.3712C12.4353 12.9396 12.6752 13.5596 12.8739 14.3438L13.8433 14.0981ZM14.1775 16.787C14.1775 15.822 14.0604 14.9548 13.8433 14.0981L12.8739 14.3438C13.0714 15.1229 13.1775 15.9077 13.1775 16.787H14.1775ZM14.1609 17.1178L14.1769 16.8131L13.1782 16.7609L13.1623 17.0656L14.1609 17.1178ZM13.8972 19.8497C14.0627 19.0011 14.1616 18.0469 14.1616 17.0917H13.1616C13.1616 17.9809 13.0692 18.8711 12.9157 19.6583L13.8972 19.8497ZM13.0189 22.1679C13.4071 21.4912 13.6852 20.7304 13.8925 19.8713L12.9204 19.6367C12.7291 20.4295 12.4809 21.0961 12.1515 21.6703L13.0189 22.1679ZM11.5503 23.7548C12.1082 23.3602 12.6251 22.852 13.0185 22.1686L12.1519 21.6697C11.8436 22.2052 11.4356 22.6111 10.9729 22.9383L11.5503 23.7548ZM9.46764 24.3597C10.2039 24.3597 10.9347 24.1901 11.5503 23.7548L10.9729 22.9383C10.5679 23.2247 10.0549 23.3597 9.46764 23.3597V24.3597ZM7.37632 23.7598C7.99286 24.1796 8.70981 24.3597 9.46764 24.3597V23.3597C8.87002 23.3597 8.35908 23.2191 7.93908 22.9332L7.37632 23.7598ZM5.89245 22.1519C6.29346 22.8509 6.81013 23.3595 7.36902 23.7548L7.94639 22.9383C7.4847 22.6118 7.07647 22.2062 6.75987 21.6543L5.89245 22.1519ZM5.06752 19.9388C5.28492 20.8134 5.53923 21.5932 5.90337 22.17L6.74896 21.6362C6.47523 21.2026 6.25114 20.555 6.03799 19.6975L5.06752 19.9388ZM4.78963 17.1398C4.78963 18.0682 4.84559 19.0546 5.0678 19.9399L6.03771 19.6964C5.84531 18.9299 5.78963 18.0398 5.78963 17.1398H4.78963ZM5.059 14.3591C4.8457 15.2344 4.78963 16.2029 4.78963 17.1398H5.78963C5.78963 16.2323 5.8452 15.3565 6.03056 14.5959L5.059 14.3591ZM5.33608 14.0228L5.32014 14.0308L5.76942 14.9242L5.78537 14.9162L5.33608 14.0228Z" fill="black"/>
</svg>
